<svg width="156" height="41" viewBox="0 0 156 41" fill="none" xmlns="http://www.w3.org/2000/svg">
<path d="M21.5709 20.5342C21.571 20.1982 21.475 19.8692 21.2943 19.5859L21.2686 19.5466C21.107 19.3067 20.889 19.1102 20.6336 18.9744C20.3783 18.8385 20.0935 18.7675 19.8042 18.7676H6.12746L6.08968 19.0955C5.98776 20.0834 5.99105 21.0794 6.0995 22.0666C6.32701 24.122 7.01562 26.0995 8.11399 27.8517L15.9725 39.9673L16.0835 39.9885C17.3102 40.2203 18.5559 40.3366 19.8042 40.3361H20.4178L11.2748 26.2414C11.2143 26.1515 11.1554 26.0608 11.0919 25.9588C10.3938 24.8413 9.91883 23.5991 9.69324 22.3009H19.8042C20.2726 22.3003 20.7216 22.1139 21.0528 21.7828C21.3839 21.4516 21.5703 21.0026 21.5709 20.5342Z" fill="white"/>
<path d="M25.2565 26.0835C25.9953 25.3606 26.582 24.4972 26.9822 23.5442C27.3824 22.5913 27.588 21.5679 27.5869 20.5342C27.5869 16.4539 24.4027 13.0475 20.3389 12.7732C20.1719 12.7619 19.9936 12.7559 19.81 12.7559H1.58515L1.51714 12.9183C-0.447346 17.6471 -0.506142 22.9525 1.35307 27.7236C3.21227 32.4947 6.84529 36.3615 11.4914 38.5143L12.3225 38.8981L6.29872 29.604L6.28814 29.5873C6.19142 29.4438 6.09772 29.2987 6.0146 29.1672L6.00327 29.1476C5.75694 28.7554 5.52345 28.3443 5.31036 27.9272C4.82687 26.9814 4.43762 25.9903 4.14822 24.9682C3.74177 23.524 3.53583 22.0308 3.53616 20.5305C3.53616 20.3272 3.5407 20.1254 3.5475 19.926C3.59303 18.6965 3.77679 17.476 4.09532 16.2876H19.8123C20.5153 16.288 21.2072 16.4632 21.8257 16.7975C22.4442 17.1317 22.9698 17.6145 23.3554 18.2024C23.3629 18.213 23.3705 18.2235 23.3773 18.2349L23.3879 18.2711L23.4211 18.3036C23.8197 18.9469 24.039 19.6852 24.0562 20.4418C24.0733 21.1984 23.8878 21.9458 23.5188 22.6065C23.1498 23.2672 22.6107 23.8172 21.9575 24.1994C21.3043 24.5816 20.5607 24.7821 19.804 24.7801H13.2852L23.1884 40.0512L23.3607 40.0202C24.4143 39.8303 25.4505 39.5538 26.4587 39.1936L26.7715 39.081L19.7888 28.3141C20.7666 28.3202 21.7364 28.1378 22.6451 27.7769C23.6214 27.3955 24.51 26.8193 25.2565 26.0835Z" fill="white"/>
<path d="M30.7365 28.9441C32.599 26.5371 33.6047 23.5774 33.5943 20.534C33.5943 12.9294 27.408 6.74316 19.8034 6.74316H5.59095L5.51539 6.82402C4.82783 7.54139 4.19463 8.30896 3.62104 9.12035C3.44121 9.37273 3.27572 9.61906 3.11553 9.87598L2.85938 10.2802H19.8042C25.4615 10.2802 30.064 14.882 30.064 20.5378C30.0633 22.4981 29.5013 24.4171 28.4446 26.0681C27.3878 27.7191 25.8805 29.0331 24.1007 29.8546L23.8241 29.9823L29.0553 38.0546L29.2699 37.9383C30.1629 37.4498 31.0175 36.8941 31.8262 36.2759L32.0204 36.1248L28.7289 31.0485C29.4701 30.4194 30.143 29.7141 30.7365 28.9441Z" fill="white"/>
<path d="M19.8056 0.730479C16.0685 0.726687 12.407 1.78342 9.24654 3.7779L8.47656 4.26377H19.8056C28.7771 4.26377 36.0757 11.5631 36.0757 20.5353C36.0777 24.4791 34.6458 28.2892 32.0467 31.2553L31.916 31.4065L33.8949 34.4584L34.1216 34.2181C37.651 30.5397 39.618 25.6369 39.6097 20.5391C39.6097 9.61508 30.7259 0.730479 19.8056 0.730479Z" fill="white"/>
<path d="M55.1297 26.243L52.8545 22.9502H50.3373V26.243H47.6133V14.4286H52.7262C53.6619 14.4064 54.5914 14.5848 55.4523 14.9519C56.1895 15.2583 56.8151 15.7832 57.2452 16.4558C57.6752 17.1284 57.889 17.9165 57.8578 18.7142C57.8876 19.5099 57.6698 20.2953 57.2346 20.9621C56.7993 21.6289 56.1679 22.1443 55.4275 22.4373L58.0771 26.2347L55.1297 26.243ZM54.4388 17.1878C54.0128 16.832 53.3881 16.6562 52.5773 16.6562H50.3373V20.7743H52.5649C53.3923 20.7743 54.0128 20.5943 54.4264 20.2345C54.6294 20.036 54.7906 19.7991 54.9007 19.5375C55.0108 19.2759 55.0675 18.9949 55.0675 18.7111C55.0675 18.4273 55.0108 18.1463 54.9007 17.8847C54.7906 17.6231 54.6294 17.3862 54.4264 17.1878H54.4388Z" fill="white"/>
<path d="M68.8856 22.0568V26.2431H66.1512V22.0237L61.5781 14.4287H64.4738L67.6301 19.6761L70.7864 14.4287H73.4753L68.8856 22.0568Z" fill="white"/>
<path d="M87.5676 24.0155V26.2431H77.2383V24.4705L83.7205 16.6563H77.3748V14.4287H87.3256V16.1992L80.86 24.0155H87.5676Z" fill="white"/>
<path d="M100.852 14.4287H103.586V24.0155H109.51V26.2431H100.852V14.4287Z" fill="white"/>
<path d="M122.301 23.7115H116.816L115.769 26.2431H112.973L118.239 14.4287H120.928L126.21 26.2431H123.341L122.301 23.7115ZM121.44 21.6431L119.567 17.1196L117.693 21.6431H121.44Z" fill="white"/>
<path d="M141.087 21.171C141.48 21.7049 141.682 22.3555 141.66 23.0181C141.681 23.4863 141.581 23.952 141.37 24.3704C141.159 24.7888 140.843 25.1458 140.454 25.407C139.65 25.9586 138.478 26.2343 136.938 26.2343H130.828V14.4199H136.599C138.04 14.4199 139.143 14.6957 139.908 15.2473C140.274 15.4936 140.572 15.8285 140.775 16.2208C140.977 16.6132 141.076 17.0502 141.064 17.4914C141.075 18.0286 140.934 18.5578 140.656 19.0177C140.378 19.4775 139.975 19.8491 139.495 20.0893C140.126 20.2737 140.683 20.6521 141.087 21.171ZM133.544 16.4862V19.2723H136.26C136.936 19.2723 137.447 19.1523 137.796 18.9165C137.967 18.8024 138.105 18.6459 138.197 18.4624C138.288 18.279 138.331 18.0748 138.32 17.8699C138.33 17.6669 138.287 17.4646 138.196 17.2832C138.104 17.1018 137.966 16.9476 137.796 16.8357C137.447 16.6062 136.936 16.4903 136.26 16.4903L133.544 16.4862ZM138.361 23.8289C138.542 23.7112 138.688 23.5473 138.784 23.3542C138.881 23.1612 138.924 22.9458 138.909 22.7305C138.909 21.7515 138.184 21.2627 136.733 21.2641H133.544V24.1825H136.733C137.453 24.1825 137.996 24.0646 138.361 23.8289Z" fill="white"/>
<path d="M148.285 26.0652C147.53 25.8687 146.817 25.5342 146.184 25.0786L147.112 23.0102C147.662 23.4038 148.272 23.7061 148.918 23.9058C149.594 24.1265 150.3 24.2403 151.011 24.243C151.787 24.243 152.362 24.1271 152.732 23.8975C152.9 23.8091 153.04 23.6767 153.139 23.5146C153.237 23.3525 153.289 23.1667 153.29 22.9771C153.292 22.8428 153.263 22.7098 153.206 22.5883C153.149 22.4668 153.064 22.3599 152.959 22.2759C152.71 22.0735 152.423 21.9217 152.116 21.8292C151.772 21.7175 151.308 21.5934 150.724 21.4569C149.974 21.2882 149.236 21.0741 148.513 20.8157C147.941 20.6017 147.432 20.2458 147.036 19.7815C146.604 19.2489 146.383 18.576 146.415 17.891C146.409 17.2284 146.604 16.5794 146.974 16.0295C147.393 15.4338 147.976 14.9731 148.653 14.7037C149.524 14.3554 150.458 14.1893 151.396 14.2156C152.141 14.2143 152.884 14.3046 153.607 14.4845C154.274 14.6435 154.912 14.9059 155.497 15.2622L154.653 17.3305C153.661 16.7402 152.532 16.4207 151.377 16.4039C150.612 16.4039 150.047 16.5273 149.681 16.7741C149.513 16.8757 149.374 17.0192 149.278 17.1908C149.182 17.3623 149.132 17.5559 149.133 17.7525C149.132 17.95 149.193 18.1429 149.306 18.3047C149.42 18.4665 149.58 18.5893 149.766 18.6563C150.389 18.9153 151.037 19.11 151.7 19.2375C152.448 19.4075 153.186 19.6223 153.909 19.8808C154.478 20.0896 154.985 20.4373 155.386 20.8922C155.799 21.3528 156.006 21.9774 156.006 22.7661C156.011 23.425 155.814 24.0696 155.442 24.6132C155.016 25.2096 154.427 25.67 153.745 25.939C152.871 26.288 151.935 26.4548 150.995 26.4292C150.079 26.4364 149.166 26.3138 148.285 26.0652Z" fill="white"/>
</svg>
