<svg width="32" height="32" viewBox="0 0 32 32" fill="none" xmlns="http://www.w3.org/2000/svg">
<rect width="32" height="32" rx="6" fill="#813ef2"/>
<g transform="translate(2, 1.5) scale(0.7)">
<path d="M21.5709 20.5342C21.571 20.1982 21.475 19.8692 21.2943 19.5859L21.2686 19.5466C21.107 19.3067 20.889 19.1102 20.6336 18.9744C20.3783 18.8385 20.0935 18.7675 19.8042 18.7676H6.12746L6.08968 19.0955C5.98776 20.0834 5.99105 21.0794 6.0995 22.0666C6.32701 24.122 7.01562 26.0995 8.11399 27.8517L15.9725 39.9673L16.0835 39.9885C17.3102 40.2203 18.5559 40.3366 19.8042 40.3361H20.4178L11.2748 26.2414C11.2143 26.1515 11.1554 26.0608 11.0919 25.9588C10.3938 24.8413 9.91883 23.5991 9.69324 22.3009H19.8042C20.2726 22.3003 20.7216 22.1139 21.0528 21.7828C21.3839 21.4516 21.5703 21.0026 21.5709 20.5342Z" fill="white"/>
<path d="M25.2565 26.0835C25.9953 25.3606 26.582 24.4972 26.9822 23.5442C27.3824 22.5913 27.588 21.5679 27.5869 20.5342C27.5869 16.4539 24.4027 13.0475 20.3389 12.7732C20.1719 12.7619 19.9936 12.7559 19.81 12.7559H1.58515L1.51714 12.9183C-0.447346 17.6471 -0.506142 22.9525 1.35307 27.7236C3.21227 32.4947 6.84529 36.3615 11.4914 38.5143L12.3225 38.8981L6.29872 29.604L6.28814 29.5873C6.19142 29.4438 6.09772 29.2987 6.0146 29.1672L6.00327 29.1476C5.75694 28.7554 5.52345 28.3443 5.31036 27.9272C4.82687 26.9814 4.43762 25.9903 4.14822 24.9682C3.74177 23.524 3.53583 22.0308 3.53616 20.5305C3.53616 20.3272 3.5407 20.1254 3.5475 19.926C3.59303 18.6965 3.77679 17.476 4.09532 16.2876H19.8123C20.5153 16.288 21.2072 16.4632 21.8257 16.7975C22.4442 17.1317 22.9698 17.6145 23.3554 18.2024C23.3629 18.213 23.3705 18.2235 23.3773 18.2349L23.3879 18.2711L23.4211 18.3036C23.8197 18.9469 24.039 19.6852 24.0562 20.4418C24.0733 21.1984 23.8878 21.9458 23.5188 22.6065C23.1498 23.2672 22.6107 23.8172 21.9575 24.1994C21.3043 24.5816 20.5607 24.7821 19.804 24.7801H13.2852L23.1884 40.0512L23.3607 40.0202C24.4143 39.8303 25.4505 39.5538 26.4587 39.1936L26.7715 39.081L19.7888 28.3141C20.7666 28.3202 21.7364 28.1378 22.6451 27.7769C23.6214 27.3955 24.51 26.8193 25.2565 26.0835Z" fill="white"/>
<path d="M30.7365 28.9441C32.599 26.5371 33.6047 23.5774 33.5943 20.534C33.5943 12.9294 27.408 6.74316 19.8034 6.74316H5.59095L5.51539 6.82402C4.82783 7.54139 4.19463 8.30896 3.62104 9.12035C3.44121 9.37273 3.27572 9.61906 3.11553 9.87598L2.85938 10.2802H19.8042C25.4615 10.2802 30.064 14.882 30.064 20.5378C30.0633 22.4981 29.5013 24.4171 28.4446 26.0681C27.3878 27.7191 25.8805 29.0331 24.1007 29.8546L23.8241 29.9823L29.0553 38.0546L29.2699 37.9383C30.1629 37.4498 31.0175 36.8941 31.8262 36.2759L32.0204 36.1248L28.7289 31.0485C29.4701 30.4194 30.143 29.7141 30.7365 28.9441Z" fill="white"/>
<path d="M19.8056 0.730479C16.0685 0.726687 12.407 1.78342 9.24654 3.7779L8.47656 4.26377H19.8056C28.7771 4.26377 36.0757 11.5631 36.0757 20.5353C36.0777 24.4791 34.6458 28.2892 32.0467 31.2553L31.916 31.4065L33.8949 34.4584L34.1216 34.2181C37.651 30.5397 39.618 25.6369 39.6097 20.5391C39.6097 9.61508 30.7259 0.730479 19.8056 0.730479Z" fill="white"/>
</g>
</svg>
